<svg id="Capa_1" data-name="Capa 1" xmlns="http://www.w3.org/2000/svg" viewBox="0 0 844.47 598.08"><defs><style>.cls-1,.cls-2{fill:none;stroke:#c6c6c6;}.cls-1{stroke-miterlimit:10;}.cls-2{stroke-linecap:round;stroke-linejoin:round;stroke-width:0;}</style></defs><polygon class="cls-1" points="842.09 530.39 293.51 1.54 286.44 1.51 842.07 537.15 842.09 530.39"/><polygon class="cls-1" points="1.92 195.53 417.4 596.07 424.46 596.09 1.95 188.77 1.92 195.53"/><polygon class="cls-1" points="1.9 202.3 410.33 596.04 417.4 596.07 1.92 195.53 1.9 202.3"/><polygon class="cls-1" points="1.95 188.77 424.46 596.09 431.53 596.12 1.97 182.01 1.95 188.77"/><polygon class="cls-1" points="1.97 182.01 431.53 596.12 438.6 596.14 2 175.24 1.97 182.01"/><polygon class="cls-1" points="842.14 516.86 307.64 1.59 300.57 1.56 842.12 523.63 842.14 516.86"/><polygon class="cls-1" points="842.12 523.63 300.57 1.56 293.51 1.54 842.09 530.39 842.12 523.63"/><polygon class="cls-1" points="0.52 588.37 6.99 594.61 13.48 594.63 0.55 582.16 0.52 588.37"/><polygon class="cls-1" points="0.5 594.58 6.99 594.61 0.52 588.37 0.5 594.58"/><polygon class="cls-1" points="842.07 537.15 286.44 1.51 279.37 1.49 842.04 543.92 842.07 537.15"/><polygon class="cls-1" points="2 175.24 438.6 596.14 445.66 596.17 2.02 168.48 2 175.24"/><polygon class="cls-1" points="236.98 1.34 229.91 1.31 841.88 591.26 841.9 584.5 236.98 1.34"/><polygon class="cls-1" points="0.57 575.95 19.97 594.65 26.46 594.67 0.59 569.74 0.57 575.95"/><polygon class="cls-1" points="0.55 582.16 13.48 594.63 19.97 594.65 0.57 575.95 0.55 582.16"/><polygon class="cls-1" points="841.92 577.74 244.04 1.36 236.98 1.34 841.9 584.5 841.92 577.74"/><polygon class="cls-1" points="842.04 543.92 279.37 1.49 272.31 1.46 842.02 550.68 842.04 543.92"/><polygon class="cls-1" points="842.02 550.68 272.31 1.46 265.24 1.44 842 557.45 842.02 550.68"/><polygon class="cls-1" points="841.95 570.97 251.11 1.39 244.04 1.36 841.92 577.74 841.95 570.97"/><polygon class="cls-1" points="841.97 564.21 258.18 1.41 251.11 1.39 841.95 570.97 841.97 564.21"/><polygon class="cls-1" points="842 557.45 265.24 1.44 258.18 1.41 841.97 564.21 842 557.45"/><polygon class="cls-1" points="842.24 489.81 335.9 1.69 328.84 1.66 842.21 496.57 842.24 489.81"/><polygon class="cls-1" points="2.19 121.13 495.13 596.34 502.2 596.37 2.21 114.37 2.19 121.13"/><polygon class="cls-1" points="2.28 94.08 523.39 596.44 530.46 596.47 2.31 87.31 2.28 94.08"/><polygon class="cls-1" points="2.26 100.84 516.33 596.42 523.39 596.44 2.28 94.08 2.26 100.84"/><polygon class="cls-1" points="842.31 469.51 357.1 1.76 350.04 1.74 842.28 476.28 842.31 469.51"/><polygon class="cls-1" points="2.21 114.37 502.2 596.37 509.26 596.39 2.24 107.61 2.21 114.37"/><polygon class="cls-1" points="842.28 476.28 350.04 1.74 342.97 1.71 842.26 483.04 842.28 476.28"/><polygon class="cls-1" points="2.24 107.61 509.26 596.39 516.33 596.42 2.26 100.84 2.24 107.61"/><polygon class="cls-1" points="842.33 462.75 364.17 1.79 357.1 1.76 842.31 469.51 842.33 462.75"/><polygon class="cls-1" points="2.38 67.02 551.66 596.54 558.73 596.57 2.4 60.26 2.38 67.02"/><polygon class="cls-1" points="2.36 73.79 544.59 596.52 551.66 596.54 2.38 67.02 2.36 73.79"/><polygon class="cls-1" points="2.02 168.48 445.66 596.17 452.73 596.19 2.04 161.72 2.02 168.48"/><polygon class="cls-1" points="2.31 87.31 530.46 596.47 537.53 596.49 2.33 80.55 2.31 87.31"/><polygon class="cls-1" points="2.33 80.55 537.53 596.49 544.59 596.52 2.36 73.79 2.33 80.55"/><polygon class="cls-1" points="842.91 300.42 533.76 2.39 526.7 2.37 842.89 307.18 842.91 300.42"/><polygon class="cls-1" points="2.07 154.95 459.8 596.22 466.86 596.24 2.09 148.19 2.07 154.95"/><polygon class="cls-1" points="842.19 503.33 321.77 1.64 314.71 1.61 842.16 510.1 842.19 503.33"/><polygon class="cls-1" points="842.16 510.1 314.71 1.61 307.64 1.59 842.14 516.86 842.16 510.1"/><polygon class="cls-1" points="1.88 209.06 403.27 596.02 410.33 596.04 1.9 202.3 1.88 209.06"/><polygon class="cls-1" points="2.04 161.72 452.73 596.19 459.8 596.22 2.07 154.95 2.04 161.72"/><polygon class="cls-1" points="2.16 127.9 488.06 596.32 495.13 596.34 2.19 121.13 2.16 127.9"/><polygon class="cls-1" points="0.59 569.74 26.46 594.67 32.95 594.7 0.61 563.53 0.59 569.74"/><polygon class="cls-1" points="842.26 483.04 342.97 1.71 335.9 1.69 842.24 489.81 842.26 483.04"/><polygon class="cls-1" points="842.21 496.57 328.84 1.66 321.77 1.64 842.19 503.33 842.21 496.57"/><polygon class="cls-1" points="2.14 134.66 481 596.29 488.06 596.32 2.16 127.9 2.14 134.66"/><polygon class="cls-1" points="2.12 141.43 473.93 596.27 481 596.29 2.14 134.66 2.12 141.43"/><polygon class="cls-1" points="1.48 321.29 286.02 595.6 292.51 595.62 1.5 315.07 1.48 321.29"/><polygon class="cls-1" points="1.43 333.71 273.05 595.55 279.53 595.58 1.45 327.5 1.43 333.71"/><polygon class="cls-1" points="1.45 327.5 279.53 595.58 286.02 595.6 1.48 321.29 1.45 327.5"/><polygon class="cls-1" points="1.41 339.92 266.56 595.53 273.05 595.55 1.43 333.71 1.41 339.92"/><polygon class="cls-1" points="1.54 302.65 305.49 595.67 311.98 595.69 1.56 296.44 1.54 302.65"/><polygon class="cls-1" points="1.52 308.86 299 595.64 305.49 595.67 1.54 302.65 1.52 308.86"/><polygon class="cls-1" points="1.39 346.13 260.07 595.51 266.56 595.53 1.41 339.92 1.39 346.13"/><polygon class="cls-1" points="1.5 315.07 292.51 595.62 299 595.64 1.52 308.86 1.5 315.07"/><polygon class="cls-1" points="2.4 60.26 558.73 596.57 565.79 596.6 2.43 53.49 2.4 60.26"/><polygon class="cls-1" points="1.28 377.19 227.62 595.39 234.11 595.41 1.3 370.98 1.28 377.19"/><polygon class="cls-1" points="1.36 352.34 253.58 595.48 260.07 595.51 1.39 346.13 1.36 352.34"/><polygon class="cls-1" points="1.3 370.98 234.11 595.41 240.6 595.44 1.32 364.76 1.3 370.98"/><polygon class="cls-1" points="1.25 383.4 221.13 595.37 227.62 595.39 1.28 377.19 1.25 383.4"/><polygon class="cls-1" points="1.32 364.76 240.6 595.44 247.09 595.46 1.34 358.55 1.32 364.76"/><polygon class="cls-1" points="1.34 358.55 247.09 595.46 253.58 595.48 1.36 352.34 1.34 358.55"/><polygon class="cls-1" points="1.59 290.23 318.47 595.71 325.54 595.74 1.61 283.46 1.59 290.23"/><polygon class="cls-1" points="1.73 249.65 360.87 595.87 367.93 595.89 1.75 242.88 1.73 249.65"/><polygon class="cls-1" points="1.8 229.35 382.07 595.94 389.13 595.97 1.83 222.59 1.8 229.35"/><polygon class="cls-1" points="1.75 242.88 367.93 595.89 375 595.92 1.78 236.12 1.75 242.88"/><polygon class="cls-1" points="1.78 236.12 375 595.92 382.07 595.94 1.8 229.35 1.78 236.12"/><polygon class="cls-1" points="1.83 222.59 389.13 595.97 396.2 595.99 1.85 215.83 1.83 222.59"/><polygon class="cls-1" points="1.85 215.83 396.2 595.99 403.27 596.02 1.88 209.06 1.85 215.83"/><polygon class="cls-1" points="1.56 296.44 311.98 595.69 318.47 595.71 1.59 290.23 1.56 296.44"/><polygon class="cls-1" points="1.61 283.46 325.54 595.74 332.6 595.76 1.63 276.7 1.61 283.46"/><polygon class="cls-1" points="1.23 389.61 214.64 595.35 221.13 595.37 1.25 383.4 1.23 389.61"/><polygon class="cls-1" points="1.63 276.7 332.6 595.76 339.67 595.79 1.66 269.94 1.63 276.7"/><polygon class="cls-1" points="1.71 256.41 353.8 595.84 360.87 595.87 1.73 249.65 1.71 256.41"/><polygon class="cls-1" points="0.61 563.53 32.95 594.7 39.44 594.72 0.63 557.31 0.61 563.53"/><polygon class="cls-1" points="1.68 263.17 346.74 595.82 353.8 595.84 1.71 256.41 1.68 263.17"/><polygon class="cls-1" points="1.66 269.94 339.67 595.79 346.74 595.82 1.68 263.17 1.66 269.94"/><polygon class="cls-1" points="0.77 520.05 78.37 594.86 84.86 594.88 0.79 513.84 0.77 520.05"/><polygon class="cls-1" points="0.81 507.62 91.35 594.9 97.84 594.93 0.83 501.41 0.81 507.62"/><polygon class="cls-1" points="0.9 482.78 117.31 595 123.8 595.02 0.92 476.57 0.9 482.78"/><polygon class="cls-1" points="0.83 501.41 97.84 594.93 104.33 594.95 0.86 495.2 0.83 501.41"/><polygon class="cls-1" points="0.86 495.2 104.33 594.95 110.82 594.98 0.88 488.99 0.86 495.2"/><polygon class="cls-1" points="0.88 488.99 110.82 594.98 117.31 595 0.9 482.78 0.88 488.99"/><polygon class="cls-1" points="0.79 513.84 84.86 594.88 91.35 594.9 0.81 507.62 0.79 513.84"/><polygon class="cls-1" points="0.66 551.1 45.93 594.74 52.41 594.77 0.68 544.89 0.66 551.1"/><polygon class="cls-1" points="0.74 526.26 71.88 594.84 78.37 594.86 0.77 520.05 0.74 526.26"/><polygon class="cls-1" points="0.63 557.31 39.44 594.72 45.93 594.74 0.66 551.1 0.63 557.31"/><polygon class="cls-1" points="0.68 544.89 52.41 594.77 58.9 594.79 0.7 538.68 0.68 544.89"/><polygon class="cls-1" points="0.7 538.68 58.9 594.79 65.39 594.81 0.72 532.47 0.7 538.68"/><polygon class="cls-1" points="0.72 532.47 65.39 594.81 71.88 594.84 0.74 526.26 0.72 532.47"/><polygon class="cls-1" points="1.17 408.24 195.18 595.27 201.66 595.3 1.19 402.03 1.17 408.24"/><polygon class="cls-1" points="1.14 414.45 188.69 595.25 195.18 595.27 1.17 408.24 1.14 414.45"/><polygon class="cls-1" points="0.92 476.57 123.8 595.02 130.28 595.04 0.94 470.36 0.92 476.57"/><polygon class="cls-1" points="1.1 426.88 175.71 595.21 182.2 595.23 1.12 420.67 1.1 426.88"/><polygon class="cls-1" points="1.21 395.82 208.15 595.32 214.64 595.35 1.23 389.61 1.21 395.82"/><polygon class="cls-1" points="1.08 433.09 169.22 595.18 175.71 595.21 1.1 426.88 1.08 433.09"/><polygon class="cls-1" points="1.19 402.03 201.66 595.3 208.15 595.32 1.21 395.82 1.19 402.03"/><polygon class="cls-1" points="1.12 420.67 182.2 595.23 188.69 595.25 1.14 414.45 1.12 420.67"/><polygon class="cls-1" points="0.97 464.14 136.77 595.07 143.26 595.09 0.99 457.93 0.97 464.14"/><polygon class="cls-1" points="0.99 457.93 143.26 595.09 149.75 595.11 1.01 451.72 0.99 457.93"/><polygon class="cls-1" points="1.05 439.3 162.73 595.16 169.22 595.18 1.08 433.09 1.05 439.3"/><polygon class="cls-1" points="0.94 470.36 130.28 595.04 136.77 595.07 0.97 464.14 0.94 470.36"/><polygon class="cls-1" points="1.03 445.51 156.24 595.14 162.73 595.16 1.05 439.3 1.03 445.51"/><polygon class="cls-1" points="1.01 451.72 149.75 595.11 156.24 595.14 1.03 445.51 1.01 451.72"/><polygon class="cls-1" points="2.09 148.19 466.86 596.24 473.93 596.27 2.12 141.43 2.09 148.19"/><polygon class="cls-1" points="843.61 104.27 738.69 3.12 731.62 3.1 843.59 111.03 843.61 104.27"/><polygon class="cls-1" points="842.69 361.29 470.17 2.17 463.1 2.14 842.67 368.06 842.69 361.29"/><polygon class="cls-1" points="843.63 97.5 745.76 3.15 738.69 3.12 843.61 104.27 843.63 97.5"/><polygon class="cls-1" points="843.59 111.03 731.62 3.1 724.56 3.07 843.56 117.8 843.59 111.03"/><polygon class="cls-1" points="843.71 77.21 766.96 3.22 759.89 3.2 843.68 83.98 843.71 77.21"/><polygon class="cls-1" points="843.44 151.62 689.23 2.95 682.16 2.92 843.42 158.38 843.44 151.62"/><polygon class="cls-1" points="842.67 368.06 463.1 2.14 456.03 2.12 842.65 374.82 842.67 368.06"/><polygon class="cls-1" points="843.68 83.98 759.89 3.2 752.82 3.17 843.66 90.74 843.68 83.98"/><polygon class="cls-1" points="222.84 1.29 841.38 597.58 841.85 597.58 841.88 591.26 229.91 1.31 222.84 1.29"/><polygon class="cls-1" points="843.49 138.09 703.36 3 696.29 2.97 843.47 144.85 843.49 138.09"/><polygon class="cls-1" points="843.47 144.85 696.29 2.97 689.23 2.95 843.44 151.62 843.47 144.85"/><polygon class="cls-1" points="843.54 124.56 717.49 3.05 710.42 3.02 843.51 131.32 843.54 124.56"/><polygon class="cls-1" points="843.56 117.8 724.56 3.07 717.49 3.05 843.54 124.56 843.56 117.8"/><polygon class="cls-1" points="842.72 354.53 477.23 2.19 470.17 2.17 842.69 361.29 842.72 354.53"/><polygon class="cls-1" points="843.66 90.74 752.82 3.17 745.76 3.15 843.63 97.5 843.66 90.74"/><polygon class="cls-1" points="843.9 23.1 823.49 3.42 816.42 3.4 843.87 29.87 843.9 23.1"/><polygon class="cls-1" points="843.92 16.34 830.55 3.45 823.49 3.42 843.9 23.1 843.92 16.34"/><polygon class="cls-1" points="843.73 70.45 774.02 3.25 766.96 3.22 843.71 77.21 843.73 70.45"/><polygon class="cls-1" points="842.6 388.35 441.9 2.07 434.83 2.04 842.57 395.11 842.6 388.35"/><polygon class="cls-1" points="843.97 3.5 837.62 3.48 843.95 9.57 843.97 3.5"/><polygon class="cls-1" points="843.87 29.87 816.42 3.4 809.35 3.38 843.85 36.63 843.87 29.87"/><polygon class="cls-1" points="843.95 9.57 837.62 3.48 830.55 3.45 843.92 16.34 843.95 9.57"/><polygon class="cls-1" points="842.62 381.59 448.97 2.09 441.9 2.07 842.6 388.35 842.62 381.59"/><polygon class="cls-1" points="843.8 50.16 795.22 3.32 788.15 3.3 843.78 56.92 843.8 50.16"/><polygon class="cls-1" points="843.78 56.92 788.15 3.3 781.09 3.27 843.75 63.69 843.78 56.92"/><polygon class="cls-1" points="843.75 63.69 781.09 3.27 774.02 3.25 843.73 70.45 843.75 63.69"/><polygon class="cls-1" points="842.65 374.82 456.03 2.12 448.97 2.09 842.62 381.59 842.65 374.82"/><polygon class="cls-1" points="843.83 43.39 802.29 3.35 795.22 3.32 843.8 50.16 843.83 43.39"/><polygon class="cls-1" points="843.85 36.63 809.35 3.38 802.29 3.35 843.83 43.39 843.85 36.63"/><polygon class="cls-1" points="843.51 131.32 710.42 3.02 703.36 3 843.49 138.09 843.51 131.32"/><polygon class="cls-1" points="843.08 253.07 583.23 2.57 576.16 2.54 843.05 259.84 843.08 253.07"/><polygon class="cls-1" points="843.1 246.31 590.3 2.6 583.23 2.57 843.08 253.07 843.1 246.31"/><polygon class="cls-1" points="843.05 259.84 576.16 2.54 569.1 2.52 843.03 266.6 843.05 259.84"/><polygon class="cls-1" points="842.86 313.95 519.63 2.34 512.57 2.32 842.84 320.71 842.86 313.95"/><polygon class="cls-1" points="843.13 239.54 597.36 2.62 590.3 2.6 843.1 246.31 843.13 239.54"/><polygon class="cls-1" points="842.74 347.77 484.3 2.22 477.23 2.19 842.72 354.53 842.74 347.77"/><polygon class="cls-1" points="843.18 226.02 611.5 2.67 604.43 2.65 843.15 232.78 843.18 226.02"/><polygon class="cls-1" points="843.15 232.78 604.43 2.65 597.36 2.62 843.13 239.54 843.15 232.78"/><polygon class="cls-1" points="842.96 286.89 547.9 2.44 540.83 2.42 842.93 293.66 842.96 286.89"/><polygon class="cls-1" points="842.93 293.66 540.83 2.42 533.76 2.39 842.91 300.42 842.93 293.66"/><polygon class="cls-1" points="843.03 266.6 569.1 2.52 562.03 2.49 843.01 273.36 843.03 266.6"/><polygon class="cls-1" points="842.89 307.18 526.7 2.37 519.63 2.34 842.86 313.95 842.89 307.18"/><polygon class="cls-1" points="842.98 280.13 554.96 2.47 547.9 2.44 842.96 286.89 842.98 280.13"/><polygon class="cls-1" points="843.01 273.36 562.03 2.49 554.96 2.47 842.98 280.13 843.01 273.36"/><polygon class="cls-1" points="842.84 320.71 512.57 2.32 505.5 2.29 842.81 327.48 842.84 320.71"/><polygon class="cls-1" points="2.43 53.49 565.79 596.6 572.86 596.62 2.45 46.73 2.43 53.49"/><polygon class="cls-1" points="842.79 334.24 498.43 2.27 491.37 2.24 842.77 341 842.79 334.24"/><polygon class="cls-1" points="843.34 178.67 660.96 2.85 653.89 2.82 843.32 185.44 843.34 178.67"/><polygon class="cls-1" points="843.37 171.91 668.03 2.87 660.96 2.85 843.34 178.67 843.37 171.91"/><polygon class="cls-1" points="843.2 219.25 618.56 2.69 611.5 2.67 843.18 226.02 843.2 219.25"/><polygon class="cls-1" points="843.42 158.38 682.16 2.92 675.09 2.9 843.39 165.14 843.42 158.38"/><polygon class="cls-1" points="842.77 341 491.37 2.24 484.3 2.22 842.74 347.77 842.77 341"/><polygon class="cls-1" points="843.32 185.44 653.89 2.82 646.83 2.8 843.3 192.2 843.32 185.44"/><polygon class="cls-1" points="843.22 212.49 625.63 2.72 618.56 2.69 843.2 219.25 843.22 212.49"/><polygon class="cls-1" points="843.27 198.96 639.76 2.77 632.69 2.75 843.25 205.73 843.27 198.96"/><polygon class="cls-1" points="843.25 205.73 632.69 2.75 625.63 2.72 843.22 212.49 843.25 205.73"/><polygon class="cls-1" points="843.3 192.2 646.83 2.8 639.76 2.77 843.27 198.96 843.3 192.2"/><polygon class="cls-1" points="842.81 327.48 505.5 2.29 498.43 2.27 842.79 334.24 842.81 327.48"/><polygon class="cls-1" points="843.39 165.14 675.09 2.9 668.03 2.87 843.37 171.91 843.39 165.14"/><polygon class="cls-1" points="60.32 0.71 678.86 597 685.92 597.02 67.38 0.73 60.32 0.71"/><polygon class="cls-1" points="53.25 0.68 671.79 596.97 678.86 597 60.32 0.71 53.25 0.68"/><polygon class="cls-1" points="67.38 0.73 685.92 597.02 692.99 597.05 74.45 0.76 67.38 0.73"/><polygon class="cls-1" points="74.45 0.76 692.99 597.05 700.05 597.07 81.52 0.78 74.45 0.76"/><polygon class="cls-1" points="842.43 435.7 392.44 1.89 385.37 1.86 842.4 442.46 842.43 435.7"/><polygon class="cls-1" points="47.33 0.66 665.87 596.95 671.79 596.97 53.25 0.68 47.33 0.66"/><polygon class="cls-1" points="39.77 0.63 658.32 596.92 665.87 596.95 47.33 0.66 39.77 0.63"/><polygon class="cls-1" points="842.48 422.17 406.57 1.94 399.5 1.92 842.45 428.93 842.48 422.17"/><polygon class="cls-1" points="32.54 0.61 651.08 596.9 658.32 596.92 39.77 0.63 32.54 0.61"/><polygon class="cls-1" points="102.71 0.86 721.25 597.15 728.32 597.17 109.78 0.88 102.71 0.86"/><polygon class="cls-1" points="95.65 0.83 714.19 597.12 721.25 597.15 102.71 0.86 95.65 0.83"/><polygon class="cls-1" points="88.58 0.81 707.12 597.1 714.19 597.12 95.65 0.83 88.58 0.81"/><polygon class="cls-1" points="842.45 428.93 399.5 1.92 392.44 1.89 842.43 435.7 842.45 428.93"/><polygon class="cls-1" points="81.52 0.78 700.05 597.07 707.12 597.1 88.58 0.81 81.52 0.78"/><polygon class="cls-1" points="10.82 0.53 629.36 596.82 636.6 596.85 18.06 0.56 10.82 0.53"/><polygon class="cls-1" points="2.52 27.29 593.17 596.69 600.4 596.72 2.55 20.36 2.52 27.29"/><polygon class="cls-1" points="2.55 20.36 600.4 596.72 607.64 596.74 2.57 13.44 2.55 20.36"/><polygon class="cls-1" points="2.57 13.44 607.64 596.74 614.88 596.77 2.6 6.51 2.57 13.44"/><polygon class="cls-1" points="2.5 34.61 585.52 596.66 593.17 596.69 2.52 27.29 2.5 34.61"/><polygon class="cls-1" points="25.3 0.58 643.84 596.87 651.08 596.9 32.54 0.61 25.3 0.58"/><polygon class="cls-1" points="842.36 455.99 371.24 1.81 364.17 1.79 842.33 462.75 842.36 455.99"/><polygon class="cls-1" points="2.45 46.73 572.86 596.62 579.93 596.64 2.48 39.97 2.45 46.73"/><polygon class="cls-1" points="2.48 39.97 579.93 596.64 585.52 596.66 2.5 34.61 2.48 39.97"/><polygon class="cls-1" points="109.78 0.88 728.32 597.17 735.39 597.2 116.85 0.91 109.78 0.88"/><polygon class="cls-1" points="842.4 442.46 385.37 1.86 378.3 1.84 842.38 449.22 842.4 442.46"/><polygon class="cls-1" points="842.38 449.22 378.3 1.84 371.24 1.81 842.36 455.99 842.38 449.22"/><polygon class="cls-1" points="18.06 0.56 636.6 596.85 643.84 596.87 25.3 0.58 18.06 0.56"/><polygon class="cls-1" points="2.62 0.5 2.6 6.51 614.88 596.77 622.12 596.8 3.58 0.51 2.62 0.5"/><polygon class="cls-1" points="3.58 0.51 622.12 596.8 629.36 596.82 10.82 0.53 3.58 0.51"/><polygon class="cls-1" points="180.44 1.14 798.98 597.43 806.05 597.45 187.51 1.16 180.44 1.14"/><polygon class="cls-1" points="159.25 1.06 777.78 597.35 784.85 597.38 166.31 1.08 159.25 1.06"/><polygon class="cls-1" points="194.58 1.19 813.12 597.48 820.18 597.5 201.64 1.21 194.58 1.19"/><polygon class="cls-1" points="842.55 401.88 427.77 2.02 420.7 1.99 842.52 408.64 842.55 401.88"/><polygon class="cls-1" points="208.71 1.24 827.25 597.53 834.32 597.55 215.78 1.26 208.71 1.24"/><polygon class="cls-1" points="201.64 1.21 820.18 597.5 827.25 597.53 208.71 1.24 201.64 1.21"/><polygon class="cls-1" points="215.78 1.26 834.32 597.55 841.38 597.58 222.84 1.29 215.78 1.26"/><polygon class="cls-1" points="187.51 1.16 806.05 597.45 813.12 597.48 194.58 1.19 187.51 1.16"/><polygon class="cls-1" points="173.38 1.11 791.92 597.4 798.98 597.43 180.44 1.14 173.38 1.11"/><polygon class="cls-1" points="166.31 1.08 784.85 597.38 791.92 597.4 173.38 1.11 166.31 1.08"/><polygon class="cls-1" points="123.91 0.93 742.45 597.22 749.52 597.25 130.98 0.96 123.91 0.93"/><polygon class="cls-1" points="130.98 0.96 749.52 597.25 756.59 597.27 138.05 0.98 130.98 0.96"/><polygon class="cls-1" points="842.5 415.4 413.64 1.97 406.57 1.94 842.48 422.17 842.5 415.4"/><polygon class="cls-1" points="145.11 1.01 763.65 597.3 770.72 597.33 152.18 1.03 145.11 1.01"/><polygon class="cls-1" points="842.57 395.11 434.83 2.04 427.77 2.02 842.55 401.88 842.57 395.11"/><polygon class="cls-1" points="138.05 0.98 756.59 597.27 763.65 597.3 145.11 1.01 138.05 0.98"/><polygon class="cls-1" points="842.52 408.64 420.7 1.99 413.64 1.97 842.5 415.4 842.52 408.64"/><polygon class="cls-1" points="152.18 1.03 770.72 597.33 777.78 597.35 159.25 1.06 152.18 1.03"/><polygon class="cls-1" points="116.85 0.91 735.39 597.2 742.45 597.22 123.91 0.93 116.85 0.91"/><line class="cls-2" x1="1.59" y1="290.23" x2="318.47" y2="595.71"/><line class="cls-2" x1="1.61" y1="283.47" x2="325.54" y2="595.74"/><line class="cls-2" x1="332.6" y1="595.76" x2="1.63" y2="276.7"/><line class="cls-2" x1="339.67" y1="595.79" x2="1.66" y2="269.94"/><line class="cls-2" x1="346.73" y1="595.81" x2="1.68" y2="263.17"/><line class="cls-2" x1="353.8" y1="595.84" x2="1.71" y2="256.41"/><line class="cls-2" x1="360.87" y1="595.87" x2="1.73" y2="249.65"/><line class="cls-2" x1="367.93" y1="595.89" x2="1.75" y2="242.88"/><line class="cls-2" x1="375" y1="595.92" x2="1.78" y2="236.12"/><line class="cls-2" x1="382.07" y1="595.94" x2="1.8" y2="229.35"/><line class="cls-2" x1="389.13" y1="595.97" x2="1.83" y2="222.59"/><line class="cls-2" x1="396.2" y1="595.99" x2="1.85" y2="215.83"/><line class="cls-2" x1="403.27" y1="596.02" x2="1.87" y2="209.06"/><line class="cls-2" x1="410.33" y1="596.04" x2="1.9" y2="202.3"/><line class="cls-2" x1="417.4" y1="596.07" x2="1.92" y2="195.54"/><line class="cls-2" x1="424.47" y1="596.09" x2="1.95" y2="188.77"/><line class="cls-2" x1="431.53" y1="596.12" x2="1.97" y2="182.01"/><line class="cls-2" x1="438.6" y1="596.14" x2="2" y2="175.24"/><line class="cls-2" x1="445.66" y1="596.17" x2="2.02" y2="168.48"/><line class="cls-2" x1="452.73" y1="596.19" x2="2.04" y2="161.72"/><line class="cls-2" x1="459.8" y1="596.22" x2="2.07" y2="154.95"/><line class="cls-2" x1="466.86" y1="596.24" x2="2.09" y2="148.19"/><line class="cls-2" x1="473.93" y1="596.27" x2="2.12" y2="141.42"/><line class="cls-2" x1="481" y1="596.29" x2="2.14" y2="134.66"/><line class="cls-2" x1="488.06" y1="596.32" x2="2.16" y2="127.9"/><line class="cls-2" x1="495.13" y1="596.34" x2="2.19" y2="121.13"/><line class="cls-2" x1="502.2" y1="596.37" x2="2.21" y2="114.37"/><line class="cls-2" x1="509.26" y1="596.39" x2="2.24" y2="107.61"/><line class="cls-2" x1="516.33" y1="596.42" x2="2.26" y2="100.84"/><line class="cls-2" x1="523.39" y1="596.44" x2="2.28" y2="94.08"/><line class="cls-2" x1="530.46" y1="596.47" x2="2.31" y2="87.31"/><line class="cls-2" x1="537.53" y1="596.49" x2="2.33" y2="80.55"/><line class="cls-2" x1="544.59" y1="596.52" x2="2.36" y2="73.79"/><line class="cls-2" x1="551.66" y1="596.54" x2="2.38" y2="67.02"/><line class="cls-2" x1="558.73" y1="596.57" x2="2.4" y2="60.26"/><line class="cls-2" x1="565.79" y1="596.6" x2="2.43" y2="53.5"/><line class="cls-2" x1="572.86" y1="596.62" x2="2.45" y2="46.73"/><line class="cls-2" x1="579.93" y1="596.65" x2="2.48" y2="39.97"/><line class="cls-2" x1="585.52" y1="596.67" x2="2.5" y2="34.61"/><line class="cls-2" x1="593.17" y1="596.69" x2="2.52" y2="27.29"/><line class="cls-2" x1="600.41" y1="596.72" x2="2.55" y2="20.37"/><line class="cls-2" x1="607.64" y1="596.74" x2="2.57" y2="13.44"/><line class="cls-2" x1="614.88" y1="596.77" x2="2.6" y2="6.51"/><line class="cls-2" x1="622.12" y1="596.8" x2="3.58" y2="0.51"/><line class="cls-2" x1="629.36" y1="596.82" x2="10.82" y2="0.53"/><line class="cls-2" x1="636.6" y1="596.85" x2="18.06" y2="0.56"/><line class="cls-2" x1="643.84" y1="596.87" x2="25.3" y2="0.58"/><line class="cls-2" x1="651.08" y1="596.9" x2="32.54" y2="0.61"/><line class="cls-2" x1="658.31" y1="596.92" x2="39.78" y2="0.63"/><line class="cls-2" x1="665.87" y1="596.95" x2="47.33" y2="0.66"/><line class="cls-2" x1="671.79" y1="596.97" x2="53.25" y2="0.68"/><line class="cls-2" x1="678.86" y1="597" x2="60.32" y2="0.71"/><line class="cls-2" x1="685.92" y1="597.02" x2="67.38" y2="0.73"/><line class="cls-2" x1="692.99" y1="597.05" x2="74.45" y2="0.76"/><line class="cls-2" x1="700.05" y1="597.07" x2="81.52" y2="0.78"/><line class="cls-2" x1="707.12" y1="597.1" x2="88.58" y2="0.81"/><line class="cls-2" x1="714.19" y1="597.12" x2="95.65" y2="0.83"/><line class="cls-2" x1="721.25" y1="597.15" x2="102.71" y2="0.86"/><line class="cls-2" x1="728.32" y1="597.17" x2="109.78" y2="0.88"/><line class="cls-2" x1="735.39" y1="597.2" x2="116.85" y2="0.91"/><line class="cls-2" x1="742.45" y1="597.22" x2="123.91" y2="0.93"/><line class="cls-2" x1="749.52" y1="597.25" x2="130.98" y2="0.96"/><line class="cls-2" x1="756.59" y1="597.27" x2="138.05" y2="0.98"/><line class="cls-2" x1="763.65" y1="597.3" x2="145.11" y2="1.01"/><line class="cls-2" x1="770.72" y1="597.32" x2="152.18" y2="1.03"/><line class="cls-2" x1="777.78" y1="597.35" x2="159.25" y2="1.06"/><line class="cls-2" x1="784.85" y1="597.38" x2="166.31" y2="1.08"/><line class="cls-2" x1="791.92" y1="597.4" x2="173.38" y2="1.11"/><line class="cls-2" x1="798.98" y1="597.43" x2="180.44" y2="1.14"/><line class="cls-2" x1="806.05" y1="597.45" x2="187.51" y2="1.16"/><line class="cls-2" x1="813.12" y1="597.48" x2="194.58" y2="1.19"/><line class="cls-2" x1="820.18" y1="597.5" x2="201.64" y2="1.21"/><line class="cls-2" x1="827.25" y1="597.53" x2="208.71" y2="1.24"/><line class="cls-2" x1="834.32" y1="597.55" x2="215.78" y2="1.26"/><line class="cls-2" x1="841.38" y1="597.58" x2="222.84" y2="1.29"/><line class="cls-2" x1="841.88" y1="591.26" x2="229.91" y2="1.31"/><line class="cls-2" x1="841.9" y1="584.5" x2="236.98" y2="1.34"/><line class="cls-2" x1="841.92" y1="577.74" x2="244.04" y2="1.36"/><line class="cls-2" x1="841.95" y1="570.97" x2="251.11" y2="1.39"/><line class="cls-2" x1="841.97" y1="564.21" x2="258.17" y2="1.41"/><line class="cls-2" x1="842" y1="557.45" x2="265.24" y2="1.44"/><line class="cls-2" x1="842.02" y1="550.68" x2="272.31" y2="1.46"/><line class="cls-2" x1="842.04" y1="543.92" x2="279.37" y2="1.49"/><line class="cls-2" x1="842.07" y1="537.15" x2="286.44" y2="1.51"/><line class="cls-2" x1="842.09" y1="530.39" x2="293.51" y2="1.54"/><line class="cls-2" x1="842.12" y1="523.63" x2="300.57" y2="1.56"/><line class="cls-2" x1="842.14" y1="516.86" x2="307.64" y2="1.59"/><line class="cls-2" x1="842.16" y1="510.1" x2="314.71" y2="1.61"/><line class="cls-2" x1="842.19" y1="503.33" x2="321.77" y2="1.64"/><line class="cls-2" x1="842.21" y1="496.57" x2="328.84" y2="1.66"/><line class="cls-2" x1="842.24" y1="489.81" x2="335.91" y2="1.69"/><line class="cls-2" x1="842.26" y1="483.04" x2="342.97" y2="1.71"/><line class="cls-2" x1="842.28" y1="476.28" x2="350.04" y2="1.74"/><line class="cls-2" x1="842.31" y1="469.52" x2="357.1" y2="1.76"/><line class="cls-2" x1="842.33" y1="462.75" x2="364.17" y2="1.79"/><line class="cls-2" x1="842.36" y1="455.99" x2="371.24" y2="1.81"/><line class="cls-2" x1="842.38" y1="449.22" x2="378.3" y2="1.84"/><line class="cls-2" x1="842.4" y1="442.46" x2="385.37" y2="1.86"/><line class="cls-2" x1="842.43" y1="435.7" x2="392.44" y2="1.89"/><line class="cls-2" x1="842.45" y1="428.93" x2="399.5" y2="1.92"/><line class="cls-2" x1="842.48" y1="422.17" x2="406.57" y2="1.94"/><line class="cls-2" x1="842.5" y1="415.4" x2="413.64" y2="1.97"/><line class="cls-2" x1="842.53" y1="408.64" x2="420.7" y2="1.99"/><line class="cls-2" x1="842.55" y1="401.88" x2="427.77" y2="2.02"/><line class="cls-2" x1="842.57" y1="395.11" x2="434.83" y2="2.04"/><line class="cls-2" x1="842.6" y1="388.35" x2="441.9" y2="2.07"/><line class="cls-2" x1="842.62" y1="381.59" x2="448.97" y2="2.09"/><line class="cls-2" x1="842.65" y1="374.82" x2="456.03" y2="2.12"/><line class="cls-2" x1="842.67" y1="368.06" x2="463.1" y2="2.14"/><line class="cls-2" x1="842.69" y1="361.29" x2="470.17" y2="2.17"/><line class="cls-2" x1="842.72" y1="354.53" x2="477.23" y2="2.19"/><line class="cls-2" x1="842.74" y1="347.77" x2="484.3" y2="2.22"/><line class="cls-2" x1="842.77" y1="341" x2="491.37" y2="2.24"/><line class="cls-2" x1="842.79" y1="334.24" x2="498.43" y2="2.27"/><line class="cls-2" x1="842.81" y1="327.48" x2="505.5" y2="2.29"/><line class="cls-2" x1="842.84" y1="320.71" x2="512.57" y2="2.32"/><line class="cls-2" x1="842.86" y1="313.95" x2="519.63" y2="2.34"/><line class="cls-2" x1="842.89" y1="307.18" x2="526.7" y2="2.37"/><line class="cls-2" x1="842.91" y1="300.42" x2="533.76" y2="2.39"/><line class="cls-2" x1="842.93" y1="293.66" x2="540.83" y2="2.42"/><line class="cls-2" x1="842.96" y1="286.89" x2="547.9" y2="2.44"/><line class="cls-2" x1="842.98" y1="280.13" x2="554.96" y2="2.47"/><line class="cls-2" x1="843.01" y1="273.36" x2="562.03" y2="2.49"/><line class="cls-2" x1="843.03" y1="266.6" x2="569.1" y2="2.52"/><line class="cls-2" x1="843.06" y1="259.84" x2="576.16" y2="2.54"/><line class="cls-2" x1="843.08" y1="253.07" x2="583.23" y2="2.57"/><line class="cls-2" x1="843.1" y1="246.31" x2="590.3" y2="2.59"/><line class="cls-2" x1="843.13" y1="239.55" x2="597.36" y2="2.62"/><line class="cls-2" x1="843.15" y1="232.78" x2="604.43" y2="2.64"/><line class="cls-2" x1="843.18" y1="226.02" x2="611.49" y2="2.67"/><line class="cls-2" x1="843.2" y1="219.25" x2="618.56" y2="2.7"/><line class="cls-2" x1="843.22" y1="212.49" x2="625.63" y2="2.72"/><line class="cls-2" x1="843.25" y1="205.73" x2="632.69" y2="2.75"/><line class="cls-2" x1="843.27" y1="198.96" x2="639.76" y2="2.77"/><line class="cls-2" x1="843.3" y1="192.2" x2="646.83" y2="2.8"/><line class="cls-2" x1="843.32" y1="185.43" x2="653.89" y2="2.82"/><line class="cls-2" x1="843.34" y1="178.67" x2="660.96" y2="2.85"/><line class="cls-2" x1="843.37" y1="171.91" x2="668.03" y2="2.87"/><line class="cls-2" x1="843.39" y1="165.14" x2="675.09" y2="2.9"/><line class="cls-2" x1="843.42" y1="158.38" x2="682.16" y2="2.92"/><line class="cls-2" x1="843.44" y1="151.62" x2="689.22" y2="2.95"/><line class="cls-2" x1="843.46" y1="144.85" x2="696.29" y2="2.97"/><line class="cls-2" x1="843.49" y1="138.09" x2="703.36" y2="3"/><line class="cls-2" x1="843.51" y1="131.32" x2="710.42" y2="3.02"/><line class="cls-2" x1="843.54" y1="124.56" x2="717.49" y2="3.05"/><line class="cls-2" x1="843.56" y1="117.8" x2="724.56" y2="3.07"/><line class="cls-2" x1="843.59" y1="111.03" x2="731.62" y2="3.1"/><line class="cls-2" x1="843.61" y1="104.27" x2="738.69" y2="3.12"/><line class="cls-2" x1="843.63" y1="97.5" x2="745.76" y2="3.15"/><line class="cls-2" x1="843.66" y1="90.74" x2="752.82" y2="3.17"/><line class="cls-2" x1="843.68" y1="83.98" x2="759.89" y2="3.2"/><line class="cls-2" x1="843.71" y1="77.21" x2="766.96" y2="3.22"/><line class="cls-2" x1="843.73" y1="70.45" x2="774.02" y2="3.25"/><line class="cls-2" x1="843.75" y1="63.69" x2="781.09" y2="3.27"/><line class="cls-2" x1="843.78" y1="56.92" x2="788.15" y2="3.3"/><line class="cls-2" x1="843.8" y1="50.16" x2="795.22" y2="3.32"/><line class="cls-2" x1="843.83" y1="43.39" x2="802.29" y2="3.35"/><line class="cls-2" x1="843.85" y1="36.63" x2="809.35" y2="3.37"/><line class="cls-2" x1="843.87" y1="29.87" x2="816.42" y2="3.4"/><line class="cls-2" x1="843.9" y1="23.1" x2="823.49" y2="3.43"/><line class="cls-2" x1="843.92" y1="16.34" x2="830.55" y2="3.45"/><line class="cls-2" x1="843.95" y1="9.58" x2="837.62" y2="3.48"/><line class="cls-2" x1="311.98" y1="595.69" x2="1.56" y2="296.44"/><line class="cls-2" x1="305.49" y1="595.67" x2="1.54" y2="302.65"/><line class="cls-2" x1="299" y1="595.64" x2="1.52" y2="308.86"/><line class="cls-2" x1="292.51" y1="595.62" x2="1.5" y2="315.07"/><line class="cls-2" x1="286.02" y1="595.6" x2="1.48" y2="321.29"/><line class="cls-2" x1="279.53" y1="595.58" x2="1.45" y2="327.5"/><line class="cls-2" x1="273.05" y1="595.55" x2="1.43" y2="333.71"/><line class="cls-2" x1="266.56" y1="595.53" x2="1.41" y2="339.92"/><line class="cls-2" x1="260.07" y1="595.51" x2="1.39" y2="346.13"/><line class="cls-2" x1="253.58" y1="595.48" x2="1.36" y2="352.34"/><line class="cls-2" x1="247.09" y1="595.46" x2="1.34" y2="358.55"/><line class="cls-2" x1="240.6" y1="595.44" x2="1.32" y2="364.76"/><line class="cls-2" x1="234.11" y1="595.41" x2="1.3" y2="370.98"/><line class="cls-2" x1="227.62" y1="595.39" x2="1.28" y2="377.19"/><line class="cls-2" x1="221.13" y1="595.37" x2="1.25" y2="383.4"/><line class="cls-2" x1="214.64" y1="595.34" x2="1.23" y2="389.61"/><line class="cls-2" x1="208.15" y1="595.32" x2="1.21" y2="395.82"/><line class="cls-2" x1="201.66" y1="595.3" x2="1.19" y2="402.03"/><line class="cls-2" x1="195.18" y1="595.28" x2="1.17" y2="408.24"/><line class="cls-2" x1="188.69" y1="595.25" x2="1.14" y2="414.45"/><line class="cls-2" x1="182.2" y1="595.23" x2="1.12" y2="420.67"/><line class="cls-2" x1="175.71" y1="595.21" x2="1.1" y2="426.88"/><line class="cls-2" x1="169.22" y1="595.18" x2="1.08" y2="433.09"/><line class="cls-2" x1="162.73" y1="595.16" x2="1.05" y2="439.3"/><line class="cls-2" x1="156.24" y1="595.14" x2="1.03" y2="445.51"/><line class="cls-2" x1="149.75" y1="595.11" x2="1.01" y2="451.72"/><line class="cls-2" x1="143.26" y1="595.09" x2="0.99" y2="457.93"/><line class="cls-2" x1="136.77" y1="595.07" x2="0.97" y2="464.15"/><line class="cls-2" x1="130.28" y1="595.04" x2="0.94" y2="470.36"/><line class="cls-2" x1="123.8" y1="595.02" x2="0.92" y2="476.57"/><line class="cls-2" x1="117.31" y1="595" x2="0.9" y2="482.78"/><line class="cls-2" x1="110.82" y1="594.97" x2="0.88" y2="488.99"/><line class="cls-2" x1="104.33" y1="594.95" x2="0.86" y2="495.2"/><line class="cls-2" x1="97.84" y1="594.93" x2="0.83" y2="501.41"/><line class="cls-2" x1="91.35" y1="594.91" x2="0.81" y2="507.62"/><line class="cls-2" x1="84.86" y1="594.88" x2="0.79" y2="513.84"/><line class="cls-2" x1="78.37" y1="594.86" x2="0.77" y2="520.05"/><line class="cls-2" x1="71.88" y1="594.84" x2="0.75" y2="526.26"/><line class="cls-2" x1="65.39" y1="594.81" x2="0.72" y2="532.47"/><line class="cls-2" x1="58.9" y1="594.79" x2="0.7" y2="538.68"/><line class="cls-2" x1="52.41" y1="594.77" x2="0.68" y2="544.89"/><line class="cls-2" x1="45.93" y1="594.74" x2="0.66" y2="551.1"/><line class="cls-2" x1="39.44" y1="594.72" x2="0.63" y2="557.31"/><line class="cls-2" x1="32.95" y1="594.7" x2="0.61" y2="563.53"/><line class="cls-2" x1="26.46" y1="594.67" x2="0.59" y2="569.74"/><line class="cls-2" x1="19.97" y1="594.65" x2="0.57" y2="575.95"/><line class="cls-2" x1="13.48" y1="594.63" x2="0.55" y2="582.16"/><line class="cls-2" x1="6.99" y1="594.61" x2="0.52" y2="588.37"/></svg>